<svg width="48" height="48" viewBox="0 0 48 48" fill="none" xmlns="http://www.w3.org/2000/svg">
<path d="M18.4221 33.8029C18.0671 33.8029 17.7173 33.9465 17.4672 34.1983C17.2154 34.4501 17.0701 34.8 17.0701 35.1549C17.0701 35.5098 17.2154 35.8581 17.4672 36.1115C17.7173 36.3632 18.0671 36.507 18.4221 36.507C18.7787 36.507 19.127 36.3632 19.3788 36.1115C19.6304 35.8597 19.7742 35.5115 19.7742 35.1549C19.7742 34.7983 19.6304 34.4501 19.3788 34.1983C19.127 33.9464 18.7787 33.8029 18.4221 33.8029Z" fill="#FA8B17" fill-opacity="0.89"/>
<path d="M43.1849 29.9931C42.8525 27.332 41.3732 25.0072 39.2276 23.7737L31.3037 19.2191C33.0081 17.4166 34.0565 14.9876 34.0565 12.3169C34.0565 12.1265 34.0497 11.9365 34.0389 11.7466H43.5213C44.4546 11.7466 45.2114 10.9899 45.2114 10.0564C45.2114 9.12291 44.4548 8.36622 43.5213 8.36622H36.0384C34.1865 3.39103 29.379 0 24.0001 0C18.6212 0 13.8138 3.39103 11.9618 8.36622H4.479C3.54567 8.36622 2.78882 9.12291 2.78882 10.0564C2.78882 10.9899 3.54551 11.7466 4.479 11.7466H13.9613C13.9505 11.9365 13.9437 12.1267 13.9437 12.3169C13.9437 14.9876 14.9921 17.4166 16.6965 19.2191L8.77266 23.7737C6.62736 25.0069 5.14793 27.3319 4.81516 29.9931L2.80191 46.1002C2.74179 46.5812 2.89128 47.0649 3.21193 47.4284C3.53274 47.7918 3.99431 48 4.479 48H43.5213C44.0059 48 44.4675 47.7918 44.7883 47.4284C45.1091 47.0649 45.2585 46.5812 45.1984 46.1002L43.1849 29.9931ZM14.5354 31.2676H33.465V44.6196H14.5354V31.2676ZM17.3241 27.8874V22.7573L19.6868 21.3993C20.9947 22.023 22.4572 22.3732 24.0003 22.3732C25.5434 22.3732 27.0057 22.023 28.3138 21.3993L30.6765 22.7573V27.8874H17.3241ZM24.0001 3.3802C27.4342 3.3802 30.552 5.25592 32.2112 8.14077H15.7891C17.4482 5.25592 20.5661 3.3802 24.0001 3.3802ZM30.6516 11.7464C30.6679 11.9362 30.6762 12.1264 30.6762 12.3168C30.6762 15.9979 27.6813 18.9928 24.0001 18.9928C20.319 18.9928 17.3241 15.9979 17.3241 12.3168C17.3241 12.1262 17.3323 11.9362 17.3487 11.7464H30.6516ZM8.16934 30.4123C8.3712 28.7979 9.22631 27.4117 10.4572 26.7043L13.9437 24.7003V27.8874H12.8451C11.9117 27.8874 11.1549 28.6442 11.1549 29.5775V44.6198H6.39367L8.16934 30.4123ZM36.8452 44.6198V29.5775C36.8452 28.6442 36.0885 27.8874 35.155 27.8874H34.0564V24.7003L37.5429 26.7043C38.7738 27.4117 39.6289 28.7981 39.8306 30.4123L41.6066 44.6196H36.8452V44.6198Z" fill="#FA8B17" fill-opacity="0.89"/>
<path d="M29.5769 33.8029C29.2219 33.8029 28.8721 33.9465 28.6219 34.1983C28.3701 34.4501 28.2249 34.7983 28.2249 35.1549C28.2249 35.5115 28.3701 35.8597 28.6219 36.1115C28.8721 36.3632 29.2219 36.507 29.5769 36.507C29.9335 36.507 30.2817 36.3632 30.5335 36.1115C30.7852 35.8597 30.929 35.5097 30.929 35.1549C30.929 34.7983 30.7852 34.4501 30.5335 34.1983C30.2817 33.9464 29.9335 33.8029 29.5769 33.8029Z" fill="#FA8B17" fill-opacity="0.89"/>
</svg>
